<svg id="Capa_1" enable-background="new 0 0 512 512" height="512" viewBox="0 0 512 512" width="512" xmlns="http://www.w3.org/2000/svg"><g><g><g><path d="m256 450.82v-57.952c-1.02-.631-2.046-1.251-3.077-1.861-34.969-20.678-76.325-27.781-116.393-21.077l-95.122 15.916v34.196h112.592c37.375 0 70.005 12.702 102 30.778z" fill="#eaf0f0"/></g><g><path d="m256 450.82v-57.952c1.02-.631 2.046-1.251 3.077-1.861 34.969-20.678 76.325-27.781 116.393-21.077l95.122 15.916v34.196h-112.593c-37.374 0-70.004 12.702-101.999 30.778z" fill="#eaf0f0"/></g></g><g><path d="m331.199 154.814-.053-.014c9.49-14.28 15.031-31.412 15.031-49.843 0-49.804-40.374-90.178-90.178-90.178s-90.178 40.374-90.178 90.178c0 20.308 6.717 39.046 18.045 54.12 6.899 10.44 23.357 29.194 23.357 65.978h48.771 48.855c0-28.641 9.936-46.966 26.35-70.241z" fill="#ffce62"/></g><g><path d="m256 225.056h-48.812v32.583c0 23.51 19.97 43.484 43.484 43.484h5.328 5.327c23.51 0 43.484-19.97 43.484-43.484v-32.583z" fill="#bfd8d8"/></g><g><path d="m255.994 225.056v-55.305c0-16.06 5.079-31.709 14.51-44.709 2.513-3.464 4.717-7.116 6.598-10.914 7.706-15.557-3.746-33.79-21.107-33.784-17.045-.013-28.672 18.456-21.092 33.775 1.879 3.797 4.08 7.448 6.589 10.912l.016.021c9.416 12.993 14.485 28.629 14.485 44.675v55.329" fill="#eaf0f0"/></g><g><path d="m202.333 471.227c11.896 0 23.362 5.219 30.621 14.644 5.315 6.902 13.661 11.349 23.046 11.349s17.731-4.447 23.046-11.349c7.259-9.425 18.725-14.644 30.621-14.644h192.333v-51.185h-144.001c-37.413 0-69.918 12.658-101.999 30.778-32.083-18.115-64.583-30.778-101.999-30.778h-144.001v51.185z" fill="#e0a083"/></g><g><path d="m178.362 168.712c11.978 17.077 18.827 35.219 18.827 56.344v32.583c0 28.991 24.493 53.484 53.484 53.484h10.655c28.991 0 53.484-24.493 53.484-53.484v-31.849c2.01-27.567 7.808-42.789 25.253-66.353 10.546-16.239 16.113-35.052 16.113-54.479 0-55.238-44.94-100.178-100.178-100.178s-100.178 44.94-100.178 100.178c0 24.068 8.969 44.401 22.54 63.754zm116.45 88.927c0 17.838-15.646 33.484-33.484 33.484h-10.655c-17.837 0-33.484-15.646-33.484-33.484v-22.583h77.623zm-45.221-138.475c-2.163-2.985-4.089-6.175-5.724-9.479-4.324-8.739 2.466-19.34 12.139-19.34 9.764 0 16.5 10.535 12.136 19.345-1.637 3.306-3.565 6.494-5.731 9.48-2.391 3.294-4.529 6.721-6.411 10.261-1.881-3.54-4.02-6.97-6.409-10.267zm6.409-94.384c44.21 0 80.178 35.968 80.178 80.178 0 15.835-4.62 31.156-13.359 44.308-13.646 20.468-25.583 40.702-27.584 65.79h-29.24v-45.305c0-14.042 4.358-27.471 12.604-38.836 2.821-3.889 5.334-8.043 7.466-12.349 10.831-21.863-5.79-48.222-30.058-48.222-24.265 0-40.886 26.338-30.064 48.21 2.129 4.304 4.638 8.457 7.47 12.366 8.231 11.358 12.583 24.778 12.583 38.807v45.328h-29.166c-1.845-23.017-11.182-43.716-24.968-61.986-10.493-13.963-16.039-30.6-16.039-48.111-.001-44.21 35.967-80.178 80.177-80.178z"/><path d="m502 410.042h-21.409v-24.196c0-4.886-3.53-9.057-8.35-9.863l-95.121-15.916c-33.366-5.581-67.224-2.023-97.798 9.981 22.907-29.193 61.135-42.493 97.374-36.099l74.431 13.137c5.438.957 10.626-2.671 11.586-8.109.96-5.439-2.671-10.626-8.109-11.586l-74.431-13.137c-47.897-8.457-98.752 12.36-124.173 54.486-25.42-42.126-76.276-62.943-124.173-54.486l-74.431 13.136c-5.438.96-9.069 6.146-8.109 11.586.959 5.438 6.142 9.065 11.586 8.109l74.431-13.137c36.185-6.389 74.519 6.878 97.354 36.091-30.567-11.998-64.421-15.553-97.778-9.973l-95.122 15.916c-4.819.807-8.35 4.978-8.35 9.863v24.196h-21.408c-5.523 0-10 4.478-10 10v51.186c0 5.522 4.477 10 10 10h60.627c5.523 0 10-4.478 10-10s-4.477-10-10-10h-50.627v-31.186h134.001c35.164 0 67.234 11.577 97.08 29.484 3.748 2.118 7.598 1.265 11.124-.726 30.032-16.951 60.882-28.758 95.794-28.758h134.001v31.186h-182.333c-15.193 0-29.602 6.932-38.544 18.542-3.646 4.734-9.158 7.45-15.123 7.45s-11.477-2.715-15.123-7.45c-8.942-11.61-23.351-18.542-38.544-18.542h-43.728c-5.523 0-10 4.478-10 10s4.477 10 10 10h43.728c9.031 0 17.516 4.017 22.698 10.744 7.462 9.69 18.75 15.248 30.969 15.248s23.507-5.558 30.969-15.247c5.182-6.729 13.667-10.745 22.698-10.745h192.333c5.522 0 10-4.478 10-10v-51.186c0-5.521-4.478-9.999-10-9.999zm-450.591 0v-15.73l86.772-14.519c37.547-6.283 75.752.38 107.819 18.754v35.151c-28.049-15.443-59.978-23.656-91.999-23.656zm306.59 0c-32.017 0-63.953 8.215-91.999 23.656v-35.151c32.072-18.375 70.271-25.038 107.819-18.754l86.771 14.519v15.73z"/><path d="m123.48 467.399c-1.639-3.931-5.706-6.462-9.964-6.144-4.177.312-7.767 3.279-8.892 7.307-2.509 8.983 8.114 16.192 15.58 10.697 3.664-2.697 4.991-7.673 3.276-11.86z"/></g></g></svg>